<?xml version="1.0" encoding="utf-8" standalone="no"?>
<!DOCTYPE svg PUBLIC "-//W3C//DTD SVG 1.1//EN"
  "http://www.w3.org/Graphics/SVG/1.1/DTD/svg11.dtd">
<svg xmlns:xlink="http://www.w3.org/1999/xlink" width="8085.05625pt" height="1078.757422pt" viewBox="0 0 8085.05625 1078.757422" xmlns="http://www.w3.org/2000/svg" version="1.1">
 <metadata>
  <rdf:RDF xmlns:dc="http://purl.org/dc/elements/1.1/" xmlns:cc="http://creativecommons.org/ns#" xmlns:rdf="http://www.w3.org/1999/02/22-rdf-syntax-ns#">
   <cc:Work>
    <dc:type rdf:resource="http://purl.org/dc/dcmitype/StillImage"/>
    <dc:date>2026-02-12T13:07:25.970821</dc:date>
    <dc:format>image/svg+xml</dc:format>
    <dc:creator>
     <cc:Agent>
      <dc:title>Matplotlib v3.10.7, https://matplotlib.org/</dc:title>
     </cc:Agent>
    </dc:creator>
   </cc:Work>
  </rdf:RDF>
 </metadata>
 <defs>
  <style type="text/css">*{stroke-linejoin: round; stroke-linecap: butt}</style>
 </defs>
 <g id="figure_1">
  <g id="patch_1">
   <path d="M 0 1078.757422 
L 8085.05625 1078.757422 
L 8085.05625 0 
L 0 0 
z
" style="fill: #ffffff"/>
  </g>
  <g id="axes_1">
   <g id="patch_2">
    <path d="M 319.68 259.845766 
L 1725.84 259.845766 
Q 1960.2 259.845766 1960.2 176.685766 
L 1960.2 -72.794234 
Q 1960.2 -155.954234 1725.84 -155.954234 
L 319.68 -155.954234 
Q 85.32 -155.954234 85.32 -72.794234 
L 85.32 176.685766 
Q 85.32 259.845766 319.68 259.845766 
z
" clip-path="url(#p887143d408)" style="fill: #ffffff; stroke: #000000; stroke-width: 1.4; stroke-linejoin: miter"/>
   </g>
   <g id="patch_3">
    <path d="M 1960.2 259.845766 
L 3366.36 259.845766 
Q 3600.72 259.845766 3600.72 176.685766 
L 3600.72 -72.794234 
Q 3600.72 -155.954234 3366.36 -155.954234 
L 1960.2 -155.954234 
Q 1725.84 -155.954234 1725.84 -72.794234 
L 1725.84 176.685766 
Q 1725.84 259.845766 1960.2 259.845766 
z
" clip-path="url(#p887143d408)" style="fill: #ffffff; stroke: #000000; stroke-width: 1.4; stroke-linejoin: miter"/>
   </g>
   <g id="patch_4">
    <path d="M 3600.72 259.845766 
L 5428.728 259.845766 
Q 5663.088 259.845766 5663.088 176.685766 
L 5663.088 -72.794234 
Q 5663.088 -155.954234 5428.728 -155.954234 
L 3600.72 -155.954234 
Q 3366.36 -155.954234 3366.36 -72.794234 
L 3366.36 176.685766 
Q 3366.36 259.845766 3600.72 259.845766 
z
" clip-path="url(#p887143d408)" style="fill: #ffffff; stroke: #000000; stroke-width: 1.4; stroke-linejoin: miter"/>
   </g>
   <g id="patch_5">
    <path d="M 5397.48 259.845766 
L 6803.64 259.845766 
Q 7038 259.845766 7038 176.685766 
L 7038 -72.794234 
Q 7038 -155.954234 6803.64 -155.954234 
L 5397.48 -155.954234 
Q 5163.12 -155.954234 5163.12 -72.794234 
L 5163.12 176.685766 
Q 5163.12 259.845766 5397.48 259.845766 
z
" clip-path="url(#p887143d408)" style="fill: #ffffff; stroke: #000000; stroke-width: 1.4; stroke-linejoin: miter"/>
   </g>
   <g id="patch_6">
    <path d="M 7350.48 259.845766 
L 8756.64 259.845766 
Q 8991 259.845766 8991 176.685766 
L 8991 -72.794234 
Q 8991 -155.954234 8756.64 -155.954234 
L 7350.48 -155.954234 
Q 7116.12 -155.954234 7116.12 -72.794234 
L 7116.12 176.685766 
Q 7116.12 259.845766 7350.48 259.845766 
z
" clip-path="url(#p887143d408)" style="fill: #ffffff; stroke: #000000; stroke-width: 1.4; stroke-linejoin: miter"/>
   </g>
   <g id="patch_7">
    <path d="M 3991.32 273.705766 
L 5397.48 273.705766 
Q 5631.84 273.705766 5631.84 190.545766 
L 5631.84 -58.934234 
Q 5631.84 -142.094234 5397.48 -142.094234 
L 3991.32 -142.094234 
Q 3756.96 -142.094234 3756.96 -58.934234 
L 3756.96 190.545766 
Q 3756.96 273.705766 3991.32 273.705766 
z
" clip-path="url(#p887143d408)" style="fill: #ffffff; stroke: #000000; stroke-width: 1.4; stroke-linejoin: miter"/>
   </g>
   <g id="patch_8">
    <path d="M 5397.48 731.085766 
L 6803.64 731.085766 
Q 7038 731.085766 7038 647.925766 
L 7038 398.445766 
Q 7038 315.285766 6803.64 315.285766 
L 5397.48 315.285766 
Q 5163.12 315.285766 5163.12 398.445766 
L 5163.12 647.925766 
Q 5163.12 731.085766 5397.48 731.085766 
z
" clip-path="url(#p887143d408)" style="fill: #ffffff; stroke: #000000; stroke-width: 1.4; stroke-linejoin: miter"/>
   </g>
   <g id="patch_9">
    <path d="M 3444.48 731.085766 
L 4991.256 731.085766 
Q 5225.616 731.085766 5225.616 647.925766 
L 5225.616 398.445766 
Q 5225.616 315.285766 4991.256 315.285766 
L 3444.48 315.285766 
Q 3210.12 315.285766 3210.12 398.445766 
L 3210.12 647.925766 
Q 3210.12 731.085766 3444.48 731.085766 
z
" clip-path="url(#p887143d408)" style="fill: #ffffff; stroke: #000000; stroke-width: 1.4; stroke-linejoin: miter"/>
   </g>
   <g id="text_1">
    <!-- Customer -->
    <g transform="translate(996.044609 48.822281) scale(0.11 -0.11)">
     <defs>
      <path id="DejaVuSans-43" d="M 4122 4306 
L 4122 3641 
Q 3803 3938 3442 4084 
Q 3081 4231 2675 4231 
Q 1875 4231 1450 3742 
Q 1025 3253 1025 2328 
Q 1025 1406 1450 917 
Q 1875 428 2675 428 
Q 3081 428 3442 575 
Q 3803 722 4122 1019 
L 4122 359 
Q 3791 134 3420 21 
Q 3050 -91 2638 -91 
Q 1578 -91 968 557 
Q 359 1206 359 2328 
Q 359 3453 968 4101 
Q 1578 4750 2638 4750 
Q 3056 4750 3426 4639 
Q 3797 4528 4122 4306 
z
" transform="scale(0.015625)"/>
      <path id="DejaVuSans-75" d="M 544 1381 
L 544 3500 
L 1119 3500 
L 1119 1403 
Q 1119 906 1312 657 
Q 1506 409 1894 409 
Q 2359 409 2629 706 
Q 2900 1003 2900 1516 
L 2900 3500 
L 3475 3500 
L 3475 0 
L 2900 0 
L 2900 538 
Q 2691 219 2414 64 
Q 2138 -91 1772 -91 
Q 1169 -91 856 284 
Q 544 659 544 1381 
z
M 1991 3584 
L 1991 3584 
z
" transform="scale(0.015625)"/>
      <path id="DejaVuSans-73" d="M 2834 3397 
L 2834 2853 
Q 2591 2978 2328 3040 
Q 2066 3103 1784 3103 
Q 1356 3103 1142 2972 
Q 928 2841 928 2578 
Q 928 2378 1081 2264 
Q 1234 2150 1697 2047 
L 1894 2003 
Q 2506 1872 2764 1633 
Q 3022 1394 3022 966 
Q 3022 478 2636 193 
Q 2250 -91 1575 -91 
Q 1294 -91 989 -36 
Q 684 19 347 128 
L 347 722 
Q 666 556 975 473 
Q 1284 391 1588 391 
Q 1994 391 2212 530 
Q 2431 669 2431 922 
Q 2431 1156 2273 1281 
Q 2116 1406 1581 1522 
L 1381 1569 
Q 847 1681 609 1914 
Q 372 2147 372 2553 
Q 372 3047 722 3315 
Q 1072 3584 1716 3584 
Q 2034 3584 2315 3537 
Q 2597 3491 2834 3397 
z
" transform="scale(0.015625)"/>
      <path id="DejaVuSans-74" d="M 1172 4494 
L 1172 3500 
L 2356 3500 
L 2356 3053 
L 1172 3053 
L 1172 1153 
Q 1172 725 1289 603 
Q 1406 481 1766 481 
L 2356 481 
L 2356 0 
L 1766 0 
Q 1100 0 847 248 
Q 594 497 594 1153 
L 594 3053 
L 172 3053 
L 172 3500 
L 594 3500 
L 594 4494 
L 1172 4494 
z
" transform="scale(0.015625)"/>
      <path id="DejaVuSans-6f" d="M 1959 3097 
Q 1497 3097 1228 2736 
Q 959 2375 959 1747 
Q 959 1119 1226 758 
Q 1494 397 1959 397 
Q 2419 397 2687 759 
Q 2956 1122 2956 1747 
Q 2956 2369 2687 2733 
Q 2419 3097 1959 3097 
z
M 1959 3584 
Q 2709 3584 3137 3096 
Q 3566 2609 3566 1747 
Q 3566 888 3137 398 
Q 2709 -91 1959 -91 
Q 1206 -91 779 398 
Q 353 888 353 1747 
Q 353 2609 779 3096 
Q 1206 3584 1959 3584 
z
" transform="scale(0.015625)"/>
      <path id="DejaVuSans-6d" d="M 3328 2828 
Q 3544 3216 3844 3400 
Q 4144 3584 4550 3584 
Q 5097 3584 5394 3201 
Q 5691 2819 5691 2113 
L 5691 0 
L 5113 0 
L 5113 2094 
Q 5113 2597 4934 2840 
Q 4756 3084 4391 3084 
Q 3944 3084 3684 2787 
Q 3425 2491 3425 1978 
L 3425 0 
L 2847 0 
L 2847 2094 
Q 2847 2600 2669 2842 
Q 2491 3084 2119 3084 
Q 1678 3084 1418 2786 
Q 1159 2488 1159 1978 
L 1159 0 
L 581 0 
L 581 3500 
L 1159 3500 
L 1159 2956 
Q 1356 3278 1631 3431 
Q 1906 3584 2284 3584 
Q 2666 3584 2933 3390 
Q 3200 3197 3328 2828 
z
" transform="scale(0.015625)"/>
      <path id="DejaVuSans-65" d="M 3597 1894 
L 3597 1613 
L 953 1613 
Q 991 1019 1311 708 
Q 1631 397 2203 397 
Q 2534 397 2845 478 
Q 3156 559 3463 722 
L 3463 178 
Q 3153 47 2828 -22 
Q 2503 -91 2169 -91 
Q 1331 -91 842 396 
Q 353 884 353 1716 
Q 353 2575 817 3079 
Q 1281 3584 2069 3584 
Q 2775 3584 3186 3129 
Q 3597 2675 3597 1894 
z
M 3022 2063 
Q 3016 2534 2758 2815 
Q 2500 3097 2075 3097 
Q 1594 3097 1305 2825 
Q 1016 2553 972 2059 
L 3022 2063 
z
" transform="scale(0.015625)"/>
      <path id="DejaVuSans-72" d="M 2631 2963 
Q 2534 3019 2420 3045 
Q 2306 3072 2169 3072 
Q 1681 3072 1420 2755 
Q 1159 2438 1159 1844 
L 1159 0 
L 581 0 
L 581 3500 
L 1159 3500 
L 1159 2956 
Q 1341 3275 1631 3429 
Q 1922 3584 2338 3584 
Q 2397 3584 2469 3576 
Q 2541 3569 2628 3553 
L 2631 2963 
z
" transform="scale(0.015625)"/>
     </defs>
     <use xlink:href="#DejaVuSans-43"/>
     <use xlink:href="#DejaVuSans-75" transform="translate(69.824219 0)"/>
     <use xlink:href="#DejaVuSans-73" transform="translate(133.203125 0)"/>
     <use xlink:href="#DejaVuSans-74" transform="translate(185.302734 0)"/>
     <use xlink:href="#DejaVuSans-6f" transform="translate(224.511719 0)"/>
     <use xlink:href="#DejaVuSans-6d" transform="translate(285.693359 0)"/>
     <use xlink:href="#DejaVuSans-65" transform="translate(383.105469 0)"/>
     <use xlink:href="#DejaVuSans-72" transform="translate(444.628906 0)"/>
    </g>
    <!-- (Checkout) -->
    <g transform="translate(992.741172 61.139875) scale(0.11 -0.11)">
     <defs>
      <path id="DejaVuSans-28" d="M 1984 4856 
Q 1566 4138 1362 3434 
Q 1159 2731 1159 2009 
Q 1159 1288 1364 580 
Q 1569 -128 1984 -844 
L 1484 -844 
Q 1016 -109 783 600 
Q 550 1309 550 2009 
Q 550 2706 781 3412 
Q 1013 4119 1484 4856 
L 1984 4856 
z
" transform="scale(0.015625)"/>
      <path id="DejaVuSans-68" d="M 3513 2113 
L 3513 0 
L 2938 0 
L 2938 2094 
Q 2938 2591 2744 2837 
Q 2550 3084 2163 3084 
Q 1697 3084 1428 2787 
Q 1159 2491 1159 1978 
L 1159 0 
L 581 0 
L 581 4863 
L 1159 4863 
L 1159 2956 
Q 1366 3272 1645 3428 
Q 1925 3584 2291 3584 
Q 2894 3584 3203 3211 
Q 3513 2838 3513 2113 
z
" transform="scale(0.015625)"/>
      <path id="DejaVuSans-63" d="M 3122 3366 
L 3122 2828 
Q 2878 2963 2633 3030 
Q 2388 3097 2138 3097 
Q 1578 3097 1268 2742 
Q 959 2388 959 1747 
Q 959 1106 1268 751 
Q 1578 397 2138 397 
Q 2388 397 2633 464 
Q 2878 531 3122 666 
L 3122 134 
Q 2881 22 2623 -34 
Q 2366 -91 2075 -91 
Q 1284 -91 818 406 
Q 353 903 353 1747 
Q 353 2603 823 3093 
Q 1294 3584 2113 3584 
Q 2378 3584 2631 3529 
Q 2884 3475 3122 3366 
z
" transform="scale(0.015625)"/>
      <path id="DejaVuSans-6b" d="M 581 4863 
L 1159 4863 
L 1159 1991 
L 2875 3500 
L 3609 3500 
L 1753 1863 
L 3688 0 
L 2938 0 
L 1159 1709 
L 1159 0 
L 581 0 
L 581 4863 
z
" transform="scale(0.015625)"/>
      <path id="DejaVuSans-29" d="M 513 4856 
L 1013 4856 
Q 1481 4119 1714 3412 
Q 1947 2706 1947 2009 
Q 1947 1309 1714 600 
Q 1481 -109 1013 -844 
L 513 -844 
Q 928 -128 1133 580 
Q 1338 1288 1338 2009 
Q 1338 2731 1133 3434 
Q 928 4138 513 4856 
z
" transform="scale(0.015625)"/>
     </defs>
     <use xlink:href="#DejaVuSans-28"/>
     <use xlink:href="#DejaVuSans-43" transform="translate(39.013672 0)"/>
     <use xlink:href="#DejaVuSans-68" transform="translate(108.837891 0)"/>
     <use xlink:href="#DejaVuSans-65" transform="translate(172.216797 0)"/>
     <use xlink:href="#DejaVuSans-63" transform="translate(233.740234 0)"/>
     <use xlink:href="#DejaVuSans-6b" transform="translate(288.720703 0)"/>
     <use xlink:href="#DejaVuSans-6f" transform="translate(343.005859 0)"/>
     <use xlink:href="#DejaVuSans-75" transform="translate(404.1875 0)"/>
     <use xlink:href="#DejaVuSans-74" transform="translate(467.566406 0)"/>
     <use xlink:href="#DejaVuSans-29" transform="translate(506.775391 0)"/>
    </g>
   </g>
   <g id="text_2">
    <!-- Fraud Detection -->
    <g transform="translate(2619.439844 48.822281) scale(0.11 -0.11)">
     <defs>
      <path id="DejaVuSans-46" d="M 628 4666 
L 3309 4666 
L 3309 4134 
L 1259 4134 
L 1259 2759 
L 3109 2759 
L 3109 2228 
L 1259 2228 
L 1259 0 
L 628 0 
L 628 4666 
z
" transform="scale(0.015625)"/>
      <path id="DejaVuSans-61" d="M 2194 1759 
Q 1497 1759 1228 1600 
Q 959 1441 959 1056 
Q 959 750 1161 570 
Q 1363 391 1709 391 
Q 2188 391 2477 730 
Q 2766 1069 2766 1631 
L 2766 1759 
L 2194 1759 
z
M 3341 1997 
L 3341 0 
L 2766 0 
L 2766 531 
Q 2569 213 2275 61 
Q 1981 -91 1556 -91 
Q 1019 -91 701 211 
Q 384 513 384 1019 
Q 384 1609 779 1909 
Q 1175 2209 1959 2209 
L 2766 2209 
L 2766 2266 
Q 2766 2663 2505 2880 
Q 2244 3097 1772 3097 
Q 1472 3097 1187 3025 
Q 903 2953 641 2809 
L 641 3341 
Q 956 3463 1253 3523 
Q 1550 3584 1831 3584 
Q 2591 3584 2966 3190 
Q 3341 2797 3341 1997 
z
" transform="scale(0.015625)"/>
      <path id="DejaVuSans-64" d="M 2906 2969 
L 2906 4863 
L 3481 4863 
L 3481 0 
L 2906 0 
L 2906 525 
Q 2725 213 2448 61 
Q 2172 -91 1784 -91 
Q 1150 -91 751 415 
Q 353 922 353 1747 
Q 353 2572 751 3078 
Q 1150 3584 1784 3584 
Q 2172 3584 2448 3432 
Q 2725 3281 2906 2969 
z
M 947 1747 
Q 947 1113 1208 752 
Q 1469 391 1925 391 
Q 2381 391 2643 752 
Q 2906 1113 2906 1747 
Q 2906 2381 2643 2742 
Q 2381 3103 1925 3103 
Q 1469 3103 1208 2742 
Q 947 2381 947 1747 
z
" transform="scale(0.015625)"/>
      <path id="DejaVuSans-20" transform="scale(0.015625)"/>
      <path id="DejaVuSans-44" d="M 1259 4147 
L 1259 519 
L 2022 519 
Q 2988 519 3436 956 
Q 3884 1394 3884 2338 
Q 3884 3275 3436 3711 
Q 2988 4147 2022 4147 
L 1259 4147 
z
M 628 4666 
L 1925 4666 
Q 3281 4666 3915 4102 
Q 4550 3538 4550 2338 
Q 4550 1131 3912 565 
Q 3275 0 1925 0 
L 628 0 
L 628 4666 
z
" transform="scale(0.015625)"/>
      <path id="DejaVuSans-69" d="M 603 3500 
L 1178 3500 
L 1178 0 
L 603 0 
L 603 3500 
z
M 603 4863 
L 1178 4863 
L 1178 4134 
L 603 4134 
L 603 4863 
z
" transform="scale(0.015625)"/>
      <path id="DejaVuSans-6e" d="M 3513 2113 
L 3513 0 
L 2938 0 
L 2938 2094 
Q 2938 2591 2744 2837 
Q 2550 3084 2163 3084 
Q 1697 3084 1428 2787 
Q 1159 2491 1159 1978 
L 1159 0 
L 581 0 
L 581 3500 
L 1159 3500 
L 1159 2956 
Q 1366 3272 1645 3428 
Q 1925 3584 2291 3584 
Q 2894 3584 3203 3211 
Q 3513 2838 3513 2113 
z
" transform="scale(0.015625)"/>
     </defs>
     <use xlink:href="#DejaVuSans-46"/>
     <use xlink:href="#DejaVuSans-72" transform="translate(50.269531 0)"/>
     <use xlink:href="#DejaVuSans-61" transform="translate(91.382812 0)"/>
     <use xlink:href="#DejaVuSans-75" transform="translate(152.662109 0)"/>
     <use xlink:href="#DejaVuSans-64" transform="translate(216.041016 0)"/>
     <use xlink:href="#DejaVuSans-20" transform="translate(279.517578 0)"/>
     <use xlink:href="#DejaVuSans-44" transform="translate(311.304688 0)"/>
     <use xlink:href="#DejaVuSans-65" transform="translate(388.306641 0)"/>
     <use xlink:href="#DejaVuSans-74" transform="translate(449.830078 0)"/>
     <use xlink:href="#DejaVuSans-65" transform="translate(489.039062 0)"/>
     <use xlink:href="#DejaVuSans-63" transform="translate(550.5625 0)"/>
     <use xlink:href="#DejaVuSans-74" transform="translate(605.542969 0)"/>
     <use xlink:href="#DejaVuSans-69" transform="translate(644.751953 0)"/>
     <use xlink:href="#DejaVuSans-6f" transform="translate(672.535156 0)"/>
     <use xlink:href="#DejaVuSans-6e" transform="translate(733.716797 0)"/>
    </g>
    <!-- API -->
    <g transform="translate(2654.578828 61.139875) scale(0.11 -0.11)">
     <defs>
      <path id="DejaVuSans-41" d="M 2188 4044 
L 1331 1722 
L 3047 1722 
L 2188 4044 
z
M 1831 4666 
L 2547 4666 
L 4325 0 
L 3669 0 
L 3244 1197 
L 1141 1197 
L 716 0 
L 50 0 
L 1831 4666 
z
" transform="scale(0.015625)"/>
      <path id="DejaVuSans-50" d="M 1259 4147 
L 1259 2394 
L 2053 2394 
Q 2494 2394 2734 2622 
Q 2975 2850 2975 3272 
Q 2975 3691 2734 3919 
Q 2494 4147 2053 4147 
L 1259 4147 
z
M 628 4666 
L 2053 4666 
Q 2838 4666 3239 4311 
Q 3641 3956 3641 3272 
Q 3641 2581 3239 2228 
Q 2838 1875 2053 1875 
L 1259 1875 
L 1259 0 
L 628 0 
L 628 4666 
z
" transform="scale(0.015625)"/>
      <path id="DejaVuSans-49" d="M 628 4666 
L 1259 4666 
L 1259 0 
L 628 0 
L 628 4666 
z
" transform="scale(0.015625)"/>
     </defs>
     <use xlink:href="#DejaVuSans-41"/>
     <use xlink:href="#DejaVuSans-50" transform="translate(68.408203 0)"/>
     <use xlink:href="#DejaVuSans-49" transform="translate(128.710938 0)"/>
    </g>
   </g>
   <g id="text_3">
    <!-- Models -->
    <g transform="translate(4495.344234 48.822281) scale(0.11 -0.11)">
     <defs>
      <path id="DejaVuSans-4d" d="M 628 4666 
L 1569 4666 
L 2759 1491 
L 3956 4666 
L 4897 4666 
L 4897 0 
L 4281 0 
L 4281 4097 
L 3078 897 
L 2444 897 
L 1241 4097 
L 1241 0 
L 628 0 
L 628 4666 
z
" transform="scale(0.015625)"/>
      <path id="DejaVuSans-6c" d="M 603 4863 
L 1178 4863 
L 1178 0 
L 603 0 
L 603 4863 
z
" transform="scale(0.015625)"/>
     </defs>
     <use xlink:href="#DejaVuSans-4d"/>
     <use xlink:href="#DejaVuSans-6f" transform="translate(86.279297 0)"/>
     <use xlink:href="#DejaVuSans-64" transform="translate(147.460938 0)"/>
     <use xlink:href="#DejaVuSans-65" transform="translate(210.9375 0)"/>
     <use xlink:href="#DejaVuSans-6c" transform="translate(272.460938 0)"/>
     <use xlink:href="#DejaVuSans-73" transform="translate(300.244141 0)"/>
    </g>
    <!-- XGBoost + Autoencoder -->
    <g transform="translate(4447.899 61.139875) scale(0.11 -0.11)">
     <defs>
      <path id="DejaVuSans-58" d="M 403 4666 
L 1081 4666 
L 2241 2931 
L 3406 4666 
L 4084 4666 
L 2584 2425 
L 4184 0 
L 3506 0 
L 2194 1984 
L 872 0 
L 191 0 
L 1856 2491 
L 403 4666 
z
" transform="scale(0.015625)"/>
      <path id="DejaVuSans-47" d="M 3809 666 
L 3809 1919 
L 2778 1919 
L 2778 2438 
L 4434 2438 
L 4434 434 
Q 4069 175 3628 42 
Q 3188 -91 2688 -91 
Q 1594 -91 976 548 
Q 359 1188 359 2328 
Q 359 3472 976 4111 
Q 1594 4750 2688 4750 
Q 3144 4750 3555 4637 
Q 3966 4525 4313 4306 
L 4313 3634 
Q 3963 3931 3569 4081 
Q 3175 4231 2741 4231 
Q 1884 4231 1454 3753 
Q 1025 3275 1025 2328 
Q 1025 1384 1454 906 
Q 1884 428 2741 428 
Q 3075 428 3337 486 
Q 3600 544 3809 666 
z
" transform="scale(0.015625)"/>
      <path id="DejaVuSans-42" d="M 1259 2228 
L 1259 519 
L 2272 519 
Q 2781 519 3026 730 
Q 3272 941 3272 1375 
Q 3272 1813 3026 2020 
Q 2781 2228 2272 2228 
L 1259 2228 
z
M 1259 4147 
L 1259 2741 
L 2194 2741 
Q 2656 2741 2882 2914 
Q 3109 3088 3109 3444 
Q 3109 3797 2882 3972 
Q 2656 4147 2194 4147 
L 1259 4147 
z
M 628 4666 
L 2241 4666 
Q 2963 4666 3353 4366 
Q 3744 4066 3744 3513 
Q 3744 3084 3544 2831 
Q 3344 2578 2956 2516 
Q 3422 2416 3680 2098 
Q 3938 1781 3938 1306 
Q 3938 681 3513 340 
Q 3088 0 2303 0 
L 628 0 
L 628 4666 
z
" transform="scale(0.015625)"/>
      <path id="DejaVuSans-2b" d="M 2944 4013 
L 2944 2272 
L 4684 2272 
L 4684 1741 
L 2944 1741 
L 2944 0 
L 2419 0 
L 2419 1741 
L 678 1741 
L 678 2272 
L 2419 2272 
L 2419 4013 
L 2944 4013 
z
" transform="scale(0.015625)"/>
     </defs>
     <use xlink:href="#DejaVuSans-58"/>
     <use xlink:href="#DejaVuSans-47" transform="translate(68.505859 0)"/>
     <use xlink:href="#DejaVuSans-42" transform="translate(145.996094 0)"/>
     <use xlink:href="#DejaVuSans-6f" transform="translate(214.599609 0)"/>
     <use xlink:href="#DejaVuSans-6f" transform="translate(275.78125 0)"/>
     <use xlink:href="#DejaVuSans-73" transform="translate(336.962891 0)"/>
     <use xlink:href="#DejaVuSans-74" transform="translate(389.0625 0)"/>
     <use xlink:href="#DejaVuSans-20" transform="translate(428.271484 0)"/>
     <use xlink:href="#DejaVuSans-2b" transform="translate(460.058594 0)"/>
     <use xlink:href="#DejaVuSans-20" transform="translate(543.847656 0)"/>
     <use xlink:href="#DejaVuSans-41" transform="translate(575.634766 0)"/>
     <use xlink:href="#DejaVuSans-75" transform="translate(644.042969 0)"/>
     <use xlink:href="#DejaVuSans-74" transform="translate(707.421875 0)"/>
     <use xlink:href="#DejaVuSans-6f" transform="translate(746.630859 0)"/>
     <use xlink:href="#DejaVuSans-65" transform="translate(807.8125 0)"/>
     <use xlink:href="#DejaVuSans-6e" transform="translate(869.335938 0)"/>
     <use xlink:href="#DejaVuSans-63" transform="translate(932.714844 0)"/>
     <use xlink:href="#DejaVuSans-6f" transform="translate(987.695312 0)"/>
     <use xlink:href="#DejaVuSans-64" transform="translate(1048.876953 0)"/>
     <use xlink:href="#DejaVuSans-65" transform="translate(1112.353516 0)"/>
     <use xlink:href="#DejaVuSans-72" transform="translate(1173.876953 0)"/>
    </g>
   </g>
   <g id="text_4">
    <!-- Decision -->
    <g transform="translate(6077.144609 48.822281) scale(0.11 -0.11)">
     <use xlink:href="#DejaVuSans-44"/>
     <use xlink:href="#DejaVuSans-65" transform="translate(77.001953 0)"/>
     <use xlink:href="#DejaVuSans-63" transform="translate(138.525391 0)"/>
     <use xlink:href="#DejaVuSans-69" transform="translate(193.505859 0)"/>
     <use xlink:href="#DejaVuSans-73" transform="translate(221.289062 0)"/>
     <use xlink:href="#DejaVuSans-69" transform="translate(273.388672 0)"/>
     <use xlink:href="#DejaVuSans-6f" transform="translate(301.171875 0)"/>
     <use xlink:href="#DejaVuSans-6e" transform="translate(362.353516 0)"/>
    </g>
    <!-- Router -->
    <g transform="translate(6082.333516 61.139875) scale(0.11 -0.11)">
     <defs>
      <path id="DejaVuSans-52" d="M 2841 2188 
Q 3044 2119 3236 1894 
Q 3428 1669 3622 1275 
L 4263 0 
L 3584 0 
L 2988 1197 
Q 2756 1666 2539 1819 
Q 2322 1972 1947 1972 
L 1259 1972 
L 1259 0 
L 628 0 
L 628 4666 
L 2053 4666 
Q 2853 4666 3247 4331 
Q 3641 3997 3641 3322 
Q 3641 2881 3436 2590 
Q 3231 2300 2841 2188 
z
M 1259 4147 
L 1259 2491 
L 2053 2491 
Q 2509 2491 2742 2702 
Q 2975 2913 2975 3322 
Q 2975 3731 2742 3939 
Q 2509 4147 2053 4147 
L 1259 4147 
z
" transform="scale(0.015625)"/>
     </defs>
     <use xlink:href="#DejaVuSans-52"/>
     <use xlink:href="#DejaVuSans-6f" transform="translate(64.982422 0)"/>
     <use xlink:href="#DejaVuSans-75" transform="translate(126.164062 0)"/>
     <use xlink:href="#DejaVuSans-74" transform="translate(189.542969 0)"/>
     <use xlink:href="#DejaVuSans-65" transform="translate(228.751953 0)"/>
     <use xlink:href="#DejaVuSans-72" transform="translate(290.275391 0)"/>
    </g>
   </g>
   <g id="text_5">
    <!-- Payment -->
    <g transform="translate(8029.482031 48.822281) scale(0.11 -0.11)">
     <defs>
      <path id="DejaVuSans-79" d="M 2059 -325 
Q 1816 -950 1584 -1140 
Q 1353 -1331 966 -1331 
L 506 -1331 
L 506 -850 
L 844 -850 
Q 1081 -850 1212 -737 
Q 1344 -625 1503 -206 
L 1606 56 
L 191 3500 
L 800 3500 
L 1894 763 
L 2988 3500 
L 3597 3500 
L 2059 -325 
z
" transform="scale(0.015625)"/>
     </defs>
     <use xlink:href="#DejaVuSans-50"/>
     <use xlink:href="#DejaVuSans-61" transform="translate(55.802734 0)"/>
     <use xlink:href="#DejaVuSans-79" transform="translate(117.082031 0)"/>
     <use xlink:href="#DejaVuSans-6d" transform="translate(176.261719 0)"/>
     <use xlink:href="#DejaVuSans-65" transform="translate(273.673828 0)"/>
     <use xlink:href="#DejaVuSans-6e" transform="translate(335.197266 0)"/>
     <use xlink:href="#DejaVuSans-74" transform="translate(398.576172 0)"/>
    </g>
    <!-- Gateway -->
    <g transform="translate(8029.26375 61.139875) scale(0.11 -0.11)">
     <defs>
      <path id="DejaVuSans-77" d="M 269 3500 
L 844 3500 
L 1563 769 
L 2278 3500 
L 2956 3500 
L 3675 769 
L 4391 3500 
L 4966 3500 
L 4050 0 
L 3372 0 
L 2619 2869 
L 1863 0 
L 1184 0 
L 269 3500 
z
" transform="scale(0.015625)"/>
     </defs>
     <use xlink:href="#DejaVuSans-47"/>
     <use xlink:href="#DejaVuSans-61" transform="translate(77.490234 0)"/>
     <use xlink:href="#DejaVuSans-74" transform="translate(138.769531 0)"/>
     <use xlink:href="#DejaVuSans-65" transform="translate(177.978516 0)"/>
     <use xlink:href="#DejaVuSans-77" transform="translate(239.501953 0)"/>
     <use xlink:href="#DejaVuSans-61" transform="translate(321.289062 0)"/>
     <use xlink:href="#DejaVuSans-79" transform="translate(382.568359 0)"/>
    </g>
   </g>
   <g id="text_6">
    <!-- Block -->
    <g transform="translate(4679.524219 62.682281) scale(0.11 -0.11)">
     <use xlink:href="#DejaVuSans-42"/>
     <use xlink:href="#DejaVuSans-6c" transform="translate(68.603516 0)"/>
     <use xlink:href="#DejaVuSans-6f" transform="translate(96.386719 0)"/>
     <use xlink:href="#DejaVuSans-63" transform="translate(157.568359 0)"/>
     <use xlink:href="#DejaVuSans-6b" transform="translate(212.548828 0)"/>
    </g>
    <!-- (Stop Payment) -->
    <g transform="translate(4651.777578 74.999875) scale(0.11 -0.11)">
     <defs>
      <path id="DejaVuSans-53" d="M 3425 4513 
L 3425 3897 
Q 3066 4069 2747 4153 
Q 2428 4238 2131 4238 
Q 1616 4238 1336 4038 
Q 1056 3838 1056 3469 
Q 1056 3159 1242 3001 
Q 1428 2844 1947 2747 
L 2328 2669 
Q 3034 2534 3370 2195 
Q 3706 1856 3706 1288 
Q 3706 609 3251 259 
Q 2797 -91 1919 -91 
Q 1588 -91 1214 -16 
Q 841 59 441 206 
L 441 856 
Q 825 641 1194 531 
Q 1563 422 1919 422 
Q 2459 422 2753 634 
Q 3047 847 3047 1241 
Q 3047 1584 2836 1778 
Q 2625 1972 2144 2069 
L 1759 2144 
Q 1053 2284 737 2584 
Q 422 2884 422 3419 
Q 422 4038 858 4394 
Q 1294 4750 2059 4750 
Q 2388 4750 2728 4690 
Q 3069 4631 3425 4513 
z
" transform="scale(0.015625)"/>
      <path id="DejaVuSans-70" d="M 1159 525 
L 1159 -1331 
L 581 -1331 
L 581 3500 
L 1159 3500 
L 1159 2969 
Q 1341 3281 1617 3432 
Q 1894 3584 2278 3584 
Q 2916 3584 3314 3078 
Q 3713 2572 3713 1747 
Q 3713 922 3314 415 
Q 2916 -91 2278 -91 
Q 1894 -91 1617 61 
Q 1341 213 1159 525 
z
M 3116 1747 
Q 3116 2381 2855 2742 
Q 2594 3103 2138 3103 
Q 1681 3103 1420 2742 
Q 1159 2381 1159 1747 
Q 1159 1113 1420 752 
Q 1681 391 2138 391 
Q 2594 391 2855 752 
Q 3116 1113 3116 1747 
z
" transform="scale(0.015625)"/>
     </defs>
     <use xlink:href="#DejaVuSans-28"/>
     <use xlink:href="#DejaVuSans-53" transform="translate(39.013672 0)"/>
     <use xlink:href="#DejaVuSans-74" transform="translate(102.490234 0)"/>
     <use xlink:href="#DejaVuSans-6f" transform="translate(141.699219 0)"/>
     <use xlink:href="#DejaVuSans-70" transform="translate(202.880859 0)"/>
     <use xlink:href="#DejaVuSans-20" transform="translate(266.357422 0)"/>
     <use xlink:href="#DejaVuSans-50" transform="translate(298.144531 0)"/>
     <use xlink:href="#DejaVuSans-61" transform="translate(353.947266 0)"/>
     <use xlink:href="#DejaVuSans-79" transform="translate(415.226562 0)"/>
     <use xlink:href="#DejaVuSans-6d" transform="translate(474.40625 0)"/>
     <use xlink:href="#DejaVuSans-65" transform="translate(571.818359 0)"/>
     <use xlink:href="#DejaVuSans-6e" transform="translate(633.341797 0)"/>
     <use xlink:href="#DejaVuSans-74" transform="translate(696.720703 0)"/>
     <use xlink:href="#DejaVuSans-29" transform="translate(735.929688 0)"/>
    </g>
   </g>
   <g id="text_7">
    <!-- Analyst -->
    <g transform="translate(6080.136953 520.062281) scale(0.11 -0.11)">
     <use xlink:href="#DejaVuSans-41"/>
     <use xlink:href="#DejaVuSans-6e" transform="translate(68.408203 0)"/>
     <use xlink:href="#DejaVuSans-61" transform="translate(131.787109 0)"/>
     <use xlink:href="#DejaVuSans-6c" transform="translate(193.066406 0)"/>
     <use xlink:href="#DejaVuSans-79" transform="translate(220.849609 0)"/>
     <use xlink:href="#DejaVuSans-73" transform="translate(280.029297 0)"/>
     <use xlink:href="#DejaVuSans-74" transform="translate(332.128906 0)"/>
    </g>
    <!-- Dashboard -->
    <g transform="translate(6070.719922 532.379875) scale(0.11 -0.11)">
     <defs>
      <path id="DejaVuSans-62" d="M 3116 1747 
Q 3116 2381 2855 2742 
Q 2594 3103 2138 3103 
Q 1681 3103 1420 2742 
Q 1159 2381 1159 1747 
Q 1159 1113 1420 752 
Q 1681 391 2138 391 
Q 2594 391 2855 752 
Q 3116 1113 3116 1747 
z
M 1159 2969 
Q 1341 3281 1617 3432 
Q 1894 3584 2278 3584 
Q 2916 3584 3314 3078 
Q 3713 2572 3713 1747 
Q 3713 922 3314 415 
Q 2916 -91 2278 -91 
Q 1894 -91 1617 61 
Q 1341 213 1159 525 
L 1159 0 
L 581 0 
L 581 4863 
L 1159 4863 
L 1159 2969 
z
" transform="scale(0.015625)"/>
     </defs>
     <use xlink:href="#DejaVuSans-44"/>
     <use xlink:href="#DejaVuSans-61" transform="translate(77.001953 0)"/>
     <use xlink:href="#DejaVuSans-73" transform="translate(138.28125 0)"/>
     <use xlink:href="#DejaVuSans-68" transform="translate(190.380859 0)"/>
     <use xlink:href="#DejaVuSans-62" transform="translate(253.759766 0)"/>
     <use xlink:href="#DejaVuSans-6f" transform="translate(317.236328 0)"/>
     <use xlink:href="#DejaVuSans-61" transform="translate(378.417969 0)"/>
     <use xlink:href="#DejaVuSans-72" transform="translate(439.697266 0)"/>
     <use xlink:href="#DejaVuSans-64" transform="translate(479.060547 0)"/>
    </g>
   </g>
   <g id="text_8">
    <!-- Feedback Store -->
    <g transform="translate(4175.393391 520.062281) scale(0.11 -0.11)">
     <use xlink:href="#DejaVuSans-46"/>
     <use xlink:href="#DejaVuSans-65" transform="translate(52.019531 0)"/>
     <use xlink:href="#DejaVuSans-65" transform="translate(113.542969 0)"/>
     <use xlink:href="#DejaVuSans-64" transform="translate(175.066406 0)"/>
     <use xlink:href="#DejaVuSans-62" transform="translate(238.542969 0)"/>
     <use xlink:href="#DejaVuSans-61" transform="translate(302.019531 0)"/>
     <use xlink:href="#DejaVuSans-63" transform="translate(363.298828 0)"/>
     <use xlink:href="#DejaVuSans-6b" transform="translate(418.279297 0)"/>
     <use xlink:href="#DejaVuSans-20" transform="translate(476.189453 0)"/>
     <use xlink:href="#DejaVuSans-53" transform="translate(507.976562 0)"/>
     <use xlink:href="#DejaVuSans-74" transform="translate(571.453125 0)"/>
     <use xlink:href="#DejaVuSans-6f" transform="translate(610.662109 0)"/>
     <use xlink:href="#DejaVuSans-72" transform="translate(671.84375 0)"/>
     <use xlink:href="#DejaVuSans-65" transform="translate(710.707031 0)"/>
    </g>
    <!-- (Database) -->
    <g transform="translate(4187.332688 532.379875) scale(0.11 -0.11)">
     <use xlink:href="#DejaVuSans-28"/>
     <use xlink:href="#DejaVuSans-44" transform="translate(39.013672 0)"/>
     <use xlink:href="#DejaVuSans-61" transform="translate(116.015625 0)"/>
     <use xlink:href="#DejaVuSans-74" transform="translate(177.294922 0)"/>
     <use xlink:href="#DejaVuSans-61" transform="translate(216.503906 0)"/>
     <use xlink:href="#DejaVuSans-62" transform="translate(277.783203 0)"/>
     <use xlink:href="#DejaVuSans-61" transform="translate(341.259766 0)"/>
     <use xlink:href="#DejaVuSans-73" transform="translate(402.539062 0)"/>
     <use xlink:href="#DejaVuSans-65" transform="translate(454.638672 0)"/>
     <use xlink:href="#DejaVuSans-29" transform="translate(516.162109 0)"/>
    </g>
   </g>
   <g id="text_9">
    <!-- checkout request -->
    <g transform="translate(1795.457031 15.558281) scale(0.11 -0.11)">
     <defs>
      <path id="DejaVuSans-71" d="M 947 1747 
Q 947 1113 1208 752 
Q 1469 391 1925 391 
Q 2381 391 2643 752 
Q 2906 1113 2906 1747 
Q 2906 2381 2643 2742 
Q 2381 3103 1925 3103 
Q 1469 3103 1208 2742 
Q 947 2381 947 1747 
z
M 2906 525 
Q 2725 213 2448 61 
Q 2172 -91 1784 -91 
Q 1150 -91 751 415 
Q 353 922 353 1747 
Q 353 2572 751 3078 
Q 1150 3584 1784 3584 
Q 2172 3584 2448 3432 
Q 2725 3281 2906 2969 
L 2906 3500 
L 3481 3500 
L 3481 -1331 
L 2906 -1331 
L 2906 525 
z
" transform="scale(0.015625)"/>
     </defs>
     <use xlink:href="#DejaVuSans-63"/>
     <use xlink:href="#DejaVuSans-68" transform="translate(54.980469 0)"/>
     <use xlink:href="#DejaVuSans-65" transform="translate(118.359375 0)"/>
     <use xlink:href="#DejaVuSans-63" transform="translate(179.882812 0)"/>
     <use xlink:href="#DejaVuSans-6b" transform="translate(234.863281 0)"/>
     <use xlink:href="#DejaVuSans-6f" transform="translate(289.148438 0)"/>
     <use xlink:href="#DejaVuSans-75" transform="translate(350.330078 0)"/>
     <use xlink:href="#DejaVuSans-74" transform="translate(413.708984 0)"/>
     <use xlink:href="#DejaVuSans-20" transform="translate(452.917969 0)"/>
     <use xlink:href="#DejaVuSans-72" transform="translate(484.705078 0)"/>
     <use xlink:href="#DejaVuSans-65" transform="translate(523.568359 0)"/>
     <use xlink:href="#DejaVuSans-71" transform="translate(585.091797 0)"/>
     <use xlink:href="#DejaVuSans-75" transform="translate(648.568359 0)"/>
     <use xlink:href="#DejaVuSans-65" transform="translate(711.947266 0)"/>
     <use xlink:href="#DejaVuSans-73" transform="translate(773.470703 0)"/>
     <use xlink:href="#DejaVuSans-74" transform="translate(825.570312 0)"/>
    </g>
    <!-- (transaction data) -->
    <g transform="translate(1793.523438 27.875875) scale(0.11 -0.11)">
     <use xlink:href="#DejaVuSans-28"/>
     <use xlink:href="#DejaVuSans-74" transform="translate(39.013672 0)"/>
     <use xlink:href="#DejaVuSans-72" transform="translate(78.222656 0)"/>
     <use xlink:href="#DejaVuSans-61" transform="translate(119.335938 0)"/>
     <use xlink:href="#DejaVuSans-6e" transform="translate(180.615234 0)"/>
     <use xlink:href="#DejaVuSans-73" transform="translate(243.994141 0)"/>
     <use xlink:href="#DejaVuSans-61" transform="translate(296.09375 0)"/>
     <use xlink:href="#DejaVuSans-63" transform="translate(357.373047 0)"/>
     <use xlink:href="#DejaVuSans-74" transform="translate(412.353516 0)"/>
     <use xlink:href="#DejaVuSans-69" transform="translate(451.5625 0)"/>
     <use xlink:href="#DejaVuSans-6f" transform="translate(479.345703 0)"/>
     <use xlink:href="#DejaVuSans-6e" transform="translate(540.527344 0)"/>
     <use xlink:href="#DejaVuSans-20" transform="translate(603.90625 0)"/>
     <use xlink:href="#DejaVuSans-64" transform="translate(635.693359 0)"/>
     <use xlink:href="#DejaVuSans-61" transform="translate(699.169922 0)"/>
     <use xlink:href="#DejaVuSans-74" transform="translate(760.449219 0)"/>
     <use xlink:href="#DejaVuSans-61" transform="translate(799.658203 0)"/>
     <use xlink:href="#DejaVuSans-29" transform="translate(860.9375 0)"/>
    </g>
   </g>
   <g id="text_10">
    <!-- features / enriched data -->
    <g transform="translate(3522.752781 21.717078) scale(0.11 -0.11)">
     <defs>
      <path id="DejaVuSans-66" d="M 2375 4863 
L 2375 4384 
L 1825 4384 
Q 1516 4384 1395 4259 
Q 1275 4134 1275 3809 
L 1275 3500 
L 2222 3500 
L 2222 3053 
L 1275 3053 
L 1275 0 
L 697 0 
L 697 3053 
L 147 3053 
L 147 3500 
L 697 3500 
L 697 3744 
Q 697 4328 969 4595 
Q 1241 4863 1831 4863 
L 2375 4863 
z
" transform="scale(0.015625)"/>
      <path id="DejaVuSans-2f" d="M 1625 4666 
L 2156 4666 
L 531 -594 
L 0 -594 
L 1625 4666 
z
" transform="scale(0.015625)"/>
     </defs>
     <use xlink:href="#DejaVuSans-66"/>
     <use xlink:href="#DejaVuSans-65" transform="translate(35.205078 0)"/>
     <use xlink:href="#DejaVuSans-61" transform="translate(96.728516 0)"/>
     <use xlink:href="#DejaVuSans-74" transform="translate(158.007812 0)"/>
     <use xlink:href="#DejaVuSans-75" transform="translate(197.216797 0)"/>
     <use xlink:href="#DejaVuSans-72" transform="translate(260.595703 0)"/>
     <use xlink:href="#DejaVuSans-65" transform="translate(299.458984 0)"/>
     <use xlink:href="#DejaVuSans-73" transform="translate(360.982422 0)"/>
     <use xlink:href="#DejaVuSans-20" transform="translate(413.082031 0)"/>
     <use xlink:href="#DejaVuSans-2f" transform="translate(444.869141 0)"/>
     <use xlink:href="#DejaVuSans-20" transform="translate(478.560547 0)"/>
     <use xlink:href="#DejaVuSans-65" transform="translate(510.347656 0)"/>
     <use xlink:href="#DejaVuSans-6e" transform="translate(571.871094 0)"/>
     <use xlink:href="#DejaVuSans-72" transform="translate(635.25 0)"/>
     <use xlink:href="#DejaVuSans-69" transform="translate(676.363281 0)"/>
     <use xlink:href="#DejaVuSans-63" transform="translate(704.146484 0)"/>
     <use xlink:href="#DejaVuSans-68" transform="translate(759.126953 0)"/>
     <use xlink:href="#DejaVuSans-65" transform="translate(822.505859 0)"/>
     <use xlink:href="#DejaVuSans-64" transform="translate(884.029297 0)"/>
     <use xlink:href="#DejaVuSans-20" transform="translate(947.505859 0)"/>
     <use xlink:href="#DejaVuSans-64" transform="translate(979.292969 0)"/>
     <use xlink:href="#DejaVuSans-61" transform="translate(1042.769531 0)"/>
     <use xlink:href="#DejaVuSans-74" transform="translate(1104.048828 0)"/>
     <use xlink:href="#DejaVuSans-61" transform="translate(1143.257812 0)"/>
    </g>
   </g>
   <g id="text_11">
    <!-- score / anomaly flag -->
    <g transform="translate(5251.710438 21.717078) scale(0.11 -0.11)">
     <defs>
      <path id="DejaVuSans-67" d="M 2906 1791 
Q 2906 2416 2648 2759 
Q 2391 3103 1925 3103 
Q 1463 3103 1205 2759 
Q 947 2416 947 1791 
Q 947 1169 1205 825 
Q 1463 481 1925 481 
Q 2391 481 2648 825 
Q 2906 1169 2906 1791 
z
M 3481 434 
Q 3481 -459 3084 -895 
Q 2688 -1331 1869 -1331 
Q 1566 -1331 1297 -1286 
Q 1028 -1241 775 -1147 
L 775 -588 
Q 1028 -725 1275 -790 
Q 1522 -856 1778 -856 
Q 2344 -856 2625 -561 
Q 2906 -266 2906 331 
L 2906 616 
Q 2728 306 2450 153 
Q 2172 0 1784 0 
Q 1141 0 747 490 
Q 353 981 353 1791 
Q 353 2603 747 3093 
Q 1141 3584 1784 3584 
Q 2172 3584 2450 3431 
Q 2728 3278 2906 2969 
L 2906 3500 
L 3481 3500 
L 3481 434 
z
" transform="scale(0.015625)"/>
     </defs>
     <use xlink:href="#DejaVuSans-73"/>
     <use xlink:href="#DejaVuSans-63" transform="translate(52.099609 0)"/>
     <use xlink:href="#DejaVuSans-6f" transform="translate(107.080078 0)"/>
     <use xlink:href="#DejaVuSans-72" transform="translate(168.261719 0)"/>
     <use xlink:href="#DejaVuSans-65" transform="translate(207.125 0)"/>
     <use xlink:href="#DejaVuSans-20" transform="translate(268.648438 0)"/>
     <use xlink:href="#DejaVuSans-2f" transform="translate(300.435547 0)"/>
     <use xlink:href="#DejaVuSans-20" transform="translate(334.126953 0)"/>
     <use xlink:href="#DejaVuSans-61" transform="translate(365.914062 0)"/>
     <use xlink:href="#DejaVuSans-6e" transform="translate(427.193359 0)"/>
     <use xlink:href="#DejaVuSans-6f" transform="translate(490.572266 0)"/>
     <use xlink:href="#DejaVuSans-6d" transform="translate(551.753906 0)"/>
     <use xlink:href="#DejaVuSans-61" transform="translate(649.166016 0)"/>
     <use xlink:href="#DejaVuSans-6c" transform="translate(710.445312 0)"/>
     <use xlink:href="#DejaVuSans-79" transform="translate(738.228516 0)"/>
     <use xlink:href="#DejaVuSans-20" transform="translate(797.408203 0)"/>
     <use xlink:href="#DejaVuSans-66" transform="translate(829.195312 0)"/>
     <use xlink:href="#DejaVuSans-6c" transform="translate(864.400391 0)"/>
     <use xlink:href="#DejaVuSans-61" transform="translate(892.183594 0)"/>
     <use xlink:href="#DejaVuSans-67" transform="translate(953.462891 0)"/>
    </g>
   </g>
   <g id="text_12">
    <!-- approve → forward to PG -->
    <g transform="translate(7008.776641 104.877078) scale(0.11 -0.11)">
     <defs>
      <path id="DejaVuSans-76" d="M 191 3500 
L 800 3500 
L 1894 563 
L 2988 3500 
L 3597 3500 
L 2284 0 
L 1503 0 
L 191 3500 
z
" transform="scale(0.015625)"/>
      <path id="DejaVuSans-2192" d="M 5050 2147 
L 5050 1866 
L 3822 638 
L 3447 1013 
L 4175 1741 
L 366 1741 
L 366 2272 
L 4175 2272 
L 3447 3000 
L 3822 3375 
L 5050 2147 
z
" transform="scale(0.015625)"/>
     </defs>
     <use xlink:href="#DejaVuSans-61"/>
     <use xlink:href="#DejaVuSans-70" transform="translate(61.279297 0)"/>
     <use xlink:href="#DejaVuSans-70" transform="translate(124.755859 0)"/>
     <use xlink:href="#DejaVuSans-72" transform="translate(188.232422 0)"/>
     <use xlink:href="#DejaVuSans-6f" transform="translate(227.095703 0)"/>
     <use xlink:href="#DejaVuSans-76" transform="translate(288.277344 0)"/>
     <use xlink:href="#DejaVuSans-65" transform="translate(347.457031 0)"/>
     <use xlink:href="#DejaVuSans-20" transform="translate(408.980469 0)"/>
     <use xlink:href="#DejaVuSans-2192" transform="translate(440.767578 0)"/>
     <use xlink:href="#DejaVuSans-20" transform="translate(524.556641 0)"/>
     <use xlink:href="#DejaVuSans-66" transform="translate(556.34375 0)"/>
     <use xlink:href="#DejaVuSans-6f" transform="translate(591.548828 0)"/>
     <use xlink:href="#DejaVuSans-72" transform="translate(652.730469 0)"/>
     <use xlink:href="#DejaVuSans-77" transform="translate(693.84375 0)"/>
     <use xlink:href="#DejaVuSans-61" transform="translate(775.630859 0)"/>
     <use xlink:href="#DejaVuSans-72" transform="translate(836.910156 0)"/>
     <use xlink:href="#DejaVuSans-64" transform="translate(876.273438 0)"/>
     <use xlink:href="#DejaVuSans-20" transform="translate(939.75 0)"/>
     <use xlink:href="#DejaVuSans-74" transform="translate(971.537109 0)"/>
     <use xlink:href="#DejaVuSans-6f" transform="translate(1010.746094 0)"/>
     <use xlink:href="#DejaVuSans-20" transform="translate(1071.927734 0)"/>
     <use xlink:href="#DejaVuSans-50" transform="translate(1103.714844 0)"/>
     <use xlink:href="#DejaVuSans-47" transform="translate(1164.017578 0)"/>
    </g>
   </g>
   <g id="text_13">
    <!-- uncertain → review -->
    <g transform="translate(6094.959422 290.601078) scale(0.11 -0.11)">
     <use xlink:href="#DejaVuSans-75"/>
     <use xlink:href="#DejaVuSans-6e" transform="translate(63.378906 0)"/>
     <use xlink:href="#DejaVuSans-63" transform="translate(126.757812 0)"/>
     <use xlink:href="#DejaVuSans-65" transform="translate(181.738281 0)"/>
     <use xlink:href="#DejaVuSans-72" transform="translate(243.261719 0)"/>
     <use xlink:href="#DejaVuSans-74" transform="translate(284.375 0)"/>
     <use xlink:href="#DejaVuSans-61" transform="translate(323.583984 0)"/>
     <use xlink:href="#DejaVuSans-69" transform="translate(384.863281 0)"/>
     <use xlink:href="#DejaVuSans-6e" transform="translate(412.646484 0)"/>
     <use xlink:href="#DejaVuSans-20" transform="translate(476.025391 0)"/>
     <use xlink:href="#DejaVuSans-2192" transform="translate(507.8125 0)"/>
     <use xlink:href="#DejaVuSans-20" transform="translate(591.601562 0)"/>
     <use xlink:href="#DejaVuSans-72" transform="translate(623.388672 0)"/>
     <use xlink:href="#DejaVuSans-65" transform="translate(662.251953 0)"/>
     <use xlink:href="#DejaVuSans-76" transform="translate(723.775391 0)"/>
     <use xlink:href="#DejaVuSans-69" transform="translate(782.955078 0)"/>
     <use xlink:href="#DejaVuSans-65" transform="translate(810.738281 0)"/>
     <use xlink:href="#DejaVuSans-77" transform="translate(872.261719 0)"/>
    </g>
   </g>
   <g id="text_14">
    <!-- analyst label / outcome -->
    <g transform="translate(5094.645719 492.957078) scale(0.11 -0.11)">
     <use xlink:href="#DejaVuSans-61"/>
     <use xlink:href="#DejaVuSans-6e" transform="translate(61.279297 0)"/>
     <use xlink:href="#DejaVuSans-61" transform="translate(124.658203 0)"/>
     <use xlink:href="#DejaVuSans-6c" transform="translate(185.9375 0)"/>
     <use xlink:href="#DejaVuSans-79" transform="translate(213.720703 0)"/>
     <use xlink:href="#DejaVuSans-73" transform="translate(272.900391 0)"/>
     <use xlink:href="#DejaVuSans-74" transform="translate(325 0)"/>
     <use xlink:href="#DejaVuSans-20" transform="translate(364.208984 0)"/>
     <use xlink:href="#DejaVuSans-6c" transform="translate(395.996094 0)"/>
     <use xlink:href="#DejaVuSans-61" transform="translate(423.779297 0)"/>
     <use xlink:href="#DejaVuSans-62" transform="translate(485.058594 0)"/>
     <use xlink:href="#DejaVuSans-65" transform="translate(548.535156 0)"/>
     <use xlink:href="#DejaVuSans-6c" transform="translate(610.058594 0)"/>
     <use xlink:href="#DejaVuSans-20" transform="translate(637.841797 0)"/>
     <use xlink:href="#DejaVuSans-2f" transform="translate(669.628906 0)"/>
     <use xlink:href="#DejaVuSans-20" transform="translate(703.320312 0)"/>
     <use xlink:href="#DejaVuSans-6f" transform="translate(735.107422 0)"/>
     <use xlink:href="#DejaVuSans-75" transform="translate(796.289062 0)"/>
     <use xlink:href="#DejaVuSans-74" transform="translate(859.667969 0)"/>
     <use xlink:href="#DejaVuSans-63" transform="translate(898.876953 0)"/>
     <use xlink:href="#DejaVuSans-6f" transform="translate(953.857422 0)"/>
     <use xlink:href="#DejaVuSans-6d" transform="translate(1015.039062 0)"/>
     <use xlink:href="#DejaVuSans-65" transform="translate(1112.451172 0)"/>
    </g>
   </g>
   <g id="text_15">
    <!-- training data / feedback -->
    <g transform="translate(4378.356703 303.846281) scale(0.11 -0.11)">
     <use xlink:href="#DejaVuSans-74"/>
     <use xlink:href="#DejaVuSans-72" transform="translate(39.208984 0)"/>
     <use xlink:href="#DejaVuSans-61" transform="translate(80.322266 0)"/>
     <use xlink:href="#DejaVuSans-69" transform="translate(141.601562 0)"/>
     <use xlink:href="#DejaVuSans-6e" transform="translate(169.384766 0)"/>
     <use xlink:href="#DejaVuSans-69" transform="translate(232.763672 0)"/>
     <use xlink:href="#DejaVuSans-6e" transform="translate(260.546875 0)"/>
     <use xlink:href="#DejaVuSans-67" transform="translate(323.925781 0)"/>
     <use xlink:href="#DejaVuSans-20" transform="translate(387.402344 0)"/>
     <use xlink:href="#DejaVuSans-64" transform="translate(419.189453 0)"/>
     <use xlink:href="#DejaVuSans-61" transform="translate(482.666016 0)"/>
     <use xlink:href="#DejaVuSans-74" transform="translate(543.945312 0)"/>
     <use xlink:href="#DejaVuSans-61" transform="translate(583.154297 0)"/>
     <use xlink:href="#DejaVuSans-20" transform="translate(644.433594 0)"/>
     <use xlink:href="#DejaVuSans-2f" transform="translate(676.220703 0)"/>
     <use xlink:href="#DejaVuSans-20" transform="translate(709.912109 0)"/>
     <use xlink:href="#DejaVuSans-66" transform="translate(741.699219 0)"/>
     <use xlink:href="#DejaVuSans-65" transform="translate(776.904297 0)"/>
     <use xlink:href="#DejaVuSans-65" transform="translate(838.427734 0)"/>
     <use xlink:href="#DejaVuSans-64" transform="translate(899.951172 0)"/>
     <use xlink:href="#DejaVuSans-62" transform="translate(963.427734 0)"/>
     <use xlink:href="#DejaVuSans-61" transform="translate(1026.904297 0)"/>
     <use xlink:href="#DejaVuSans-63" transform="translate(1088.183594 0)"/>
     <use xlink:href="#DejaVuSans-6b" transform="translate(1143.164062 0)"/>
    </g>
    <!-- (retrain loop) -->
    <g transform="translate(4408.303344 316.163875) scale(0.11 -0.11)">
     <use xlink:href="#DejaVuSans-28"/>
     <use xlink:href="#DejaVuSans-72" transform="translate(39.013672 0)"/>
     <use xlink:href="#DejaVuSans-65" transform="translate(77.876953 0)"/>
     <use xlink:href="#DejaVuSans-74" transform="translate(139.400391 0)"/>
     <use xlink:href="#DejaVuSans-72" transform="translate(178.609375 0)"/>
     <use xlink:href="#DejaVuSans-61" transform="translate(219.722656 0)"/>
     <use xlink:href="#DejaVuSans-69" transform="translate(281.001953 0)"/>
     <use xlink:href="#DejaVuSans-6e" transform="translate(308.785156 0)"/>
     <use xlink:href="#DejaVuSans-20" transform="translate(372.164062 0)"/>
     <use xlink:href="#DejaVuSans-6c" transform="translate(403.951172 0)"/>
     <use xlink:href="#DejaVuSans-6f" transform="translate(431.734375 0)"/>
     <use xlink:href="#DejaVuSans-6f" transform="translate(492.916016 0)"/>
     <use xlink:href="#DejaVuSans-70" transform="translate(554.097656 0)"/>
     <use xlink:href="#DejaVuSans-29" transform="translate(617.574219 0)"/>
    </g>
   </g>
   <g id="text_16">
    <!-- block / high-risk -->
    <g transform="translate(5463.091203 61.911078) scale(0.11 -0.11)">
     <defs>
      <path id="DejaVuSans-2d" d="M 313 2009 
L 1997 2009 
L 1997 1497 
L 313 1497 
L 313 2009 
z
" transform="scale(0.015625)"/>
     </defs>
     <use xlink:href="#DejaVuSans-62"/>
     <use xlink:href="#DejaVuSans-6c" transform="translate(63.476562 0)"/>
     <use xlink:href="#DejaVuSans-6f" transform="translate(91.259766 0)"/>
     <use xlink:href="#DejaVuSans-63" transform="translate(152.441406 0)"/>
     <use xlink:href="#DejaVuSans-6b" transform="translate(207.421875 0)"/>
     <use xlink:href="#DejaVuSans-20" transform="translate(265.332031 0)"/>
     <use xlink:href="#DejaVuSans-2f" transform="translate(297.119141 0)"/>
     <use xlink:href="#DejaVuSans-20" transform="translate(330.810547 0)"/>
     <use xlink:href="#DejaVuSans-68" transform="translate(362.597656 0)"/>
     <use xlink:href="#DejaVuSans-69" transform="translate(425.976562 0)"/>
     <use xlink:href="#DejaVuSans-67" transform="translate(453.759766 0)"/>
     <use xlink:href="#DejaVuSans-68" transform="translate(517.236328 0)"/>
     <use xlink:href="#DejaVuSans-2d" transform="translate(580.615234 0)"/>
     <use xlink:href="#DejaVuSans-72" transform="translate(616.699219 0)"/>
     <use xlink:href="#DejaVuSans-69" transform="translate(657.8125 0)"/>
     <use xlink:href="#DejaVuSans-73" transform="translate(685.595703 0)"/>
     <use xlink:href="#DejaVuSans-6b" transform="translate(737.695312 0)"/>
    </g>
   </g>
   <g id="text_17">
    <!-- Legend: -->
    <g transform="translate(397.8 930.669766) scale(0.11 -0.11)">
     <defs>
      <path id="DejaVuSans-Bold-4c" d="M 588 4666 
L 1791 4666 
L 1791 909 
L 3903 909 
L 3903 0 
L 588 0 
L 588 4666 
z
" transform="scale(0.015625)"/>
      <path id="DejaVuSans-Bold-65" d="M 4031 1759 
L 4031 1441 
L 1416 1441 
Q 1456 1047 1700 850 
Q 1944 653 2381 653 
Q 2734 653 3104 758 
Q 3475 863 3866 1075 
L 3866 213 
Q 3469 63 3072 -14 
Q 2675 -91 2278 -91 
Q 1328 -91 801 392 
Q 275 875 275 1747 
Q 275 2603 792 3093 
Q 1309 3584 2216 3584 
Q 3041 3584 3536 3087 
Q 4031 2591 4031 1759 
z
M 2881 2131 
Q 2881 2450 2695 2645 
Q 2509 2841 2209 2841 
Q 1884 2841 1681 2658 
Q 1478 2475 1428 2131 
L 2881 2131 
z
" transform="scale(0.015625)"/>
      <path id="DejaVuSans-Bold-67" d="M 2919 594 
Q 2688 288 2409 144 
Q 2131 0 1766 0 
Q 1125 0 706 504 
Q 288 1009 288 1791 
Q 288 2575 706 3076 
Q 1125 3578 1766 3578 
Q 2131 3578 2409 3434 
Q 2688 3291 2919 2981 
L 2919 3500 
L 4044 3500 
L 4044 353 
Q 4044 -491 3511 -936 
Q 2978 -1381 1966 -1381 
Q 1638 -1381 1331 -1331 
Q 1025 -1281 716 -1178 
L 716 -306 
Q 1009 -475 1290 -558 
Q 1572 -641 1856 -641 
Q 2406 -641 2662 -400 
Q 2919 -159 2919 353 
L 2919 594 
z
M 2181 2772 
Q 1834 2772 1640 2515 
Q 1447 2259 1447 1791 
Q 1447 1309 1634 1061 
Q 1822 813 2181 813 
Q 2531 813 2725 1069 
Q 2919 1325 2919 1791 
Q 2919 2259 2725 2515 
Q 2531 2772 2181 2772 
z
" transform="scale(0.015625)"/>
      <path id="DejaVuSans-Bold-6e" d="M 4056 2131 
L 4056 0 
L 2931 0 
L 2931 347 
L 2931 1631 
Q 2931 2084 2911 2256 
Q 2891 2428 2841 2509 
Q 2775 2619 2662 2680 
Q 2550 2741 2406 2741 
Q 2056 2741 1856 2470 
Q 1656 2200 1656 1722 
L 1656 0 
L 538 0 
L 538 3500 
L 1656 3500 
L 1656 2988 
Q 1909 3294 2193 3439 
Q 2478 3584 2822 3584 
Q 3428 3584 3742 3212 
Q 4056 2841 4056 2131 
z
" transform="scale(0.015625)"/>
      <path id="DejaVuSans-Bold-64" d="M 2919 2988 
L 2919 4863 
L 4044 4863 
L 4044 0 
L 2919 0 
L 2919 506 
Q 2688 197 2409 53 
Q 2131 -91 1766 -91 
Q 1119 -91 703 423 
Q 288 938 288 1747 
Q 288 2556 703 3070 
Q 1119 3584 1766 3584 
Q 2128 3584 2408 3439 
Q 2688 3294 2919 2988 
z
M 2181 722 
Q 2541 722 2730 984 
Q 2919 1247 2919 1747 
Q 2919 2247 2730 2509 
Q 2541 2772 2181 2772 
Q 1825 2772 1636 2509 
Q 1447 2247 1447 1747 
Q 1447 1247 1636 984 
Q 1825 722 2181 722 
z
" transform="scale(0.015625)"/>
      <path id="DejaVuSans-Bold-3a" d="M 716 3500 
L 1844 3500 
L 1844 2291 
L 716 2291 
L 716 3500 
z
M 716 1209 
L 1844 1209 
L 1844 0 
L 716 0 
L 716 1209 
z
" transform="scale(0.015625)"/>
     </defs>
     <use xlink:href="#DejaVuSans-Bold-4c"/>
     <use xlink:href="#DejaVuSans-Bold-65" transform="translate(63.720703 0)"/>
     <use xlink:href="#DejaVuSans-Bold-67" transform="translate(131.542969 0)"/>
     <use xlink:href="#DejaVuSans-Bold-65" transform="translate(203.125 0)"/>
     <use xlink:href="#DejaVuSans-Bold-6e" transform="translate(270.947266 0)"/>
     <use xlink:href="#DejaVuSans-Bold-64" transform="translate(342.138672 0)"/>
     <use xlink:href="#DejaVuSans-Bold-3a" transform="translate(413.720703 0)"/>
    </g>
   </g>
   <g id="text_18">
    <!-- - Boxes = system components -->
    <g transform="translate(397.8 980.565766) scale(0.11 -0.11)">
     <defs>
      <path id="DejaVuSans-78" d="M 3513 3500 
L 2247 1797 
L 3578 0 
L 2900 0 
L 1881 1375 
L 863 0 
L 184 0 
L 1544 1831 
L 300 3500 
L 978 3500 
L 1906 2253 
L 2834 3500 
L 3513 3500 
z
" transform="scale(0.015625)"/>
      <path id="DejaVuSans-3d" d="M 678 2906 
L 4684 2906 
L 4684 2381 
L 678 2381 
L 678 2906 
z
M 678 1631 
L 4684 1631 
L 4684 1100 
L 678 1100 
L 678 1631 
z
" transform="scale(0.015625)"/>
     </defs>
     <use xlink:href="#DejaVuSans-2d"/>
     <use xlink:href="#DejaVuSans-20" transform="translate(36.083984 0)"/>
     <use xlink:href="#DejaVuSans-42" transform="translate(67.871094 0)"/>
     <use xlink:href="#DejaVuSans-6f" transform="translate(136.474609 0)"/>
     <use xlink:href="#DejaVuSans-78" transform="translate(194.53125 0)"/>
     <use xlink:href="#DejaVuSans-65" transform="translate(250.585938 0)"/>
     <use xlink:href="#DejaVuSans-73" transform="translate(312.109375 0)"/>
     <use xlink:href="#DejaVuSans-20" transform="translate(364.208984 0)"/>
     <use xlink:href="#DejaVuSans-3d" transform="translate(395.996094 0)"/>
     <use xlink:href="#DejaVuSans-20" transform="translate(479.785156 0)"/>
     <use xlink:href="#DejaVuSans-73" transform="translate(511.572266 0)"/>
     <use xlink:href="#DejaVuSans-79" transform="translate(563.671875 0)"/>
     <use xlink:href="#DejaVuSans-73" transform="translate(622.851562 0)"/>
     <use xlink:href="#DejaVuSans-74" transform="translate(674.951172 0)"/>
     <use xlink:href="#DejaVuSans-65" transform="translate(714.160156 0)"/>
     <use xlink:href="#DejaVuSans-6d" transform="translate(775.683594 0)"/>
     <use xlink:href="#DejaVuSans-20" transform="translate(873.095703 0)"/>
     <use xlink:href="#DejaVuSans-63" transform="translate(904.882812 0)"/>
     <use xlink:href="#DejaVuSans-6f" transform="translate(959.863281 0)"/>
     <use xlink:href="#DejaVuSans-6d" transform="translate(1021.044922 0)"/>
     <use xlink:href="#DejaVuSans-70" transform="translate(1118.457031 0)"/>
     <use xlink:href="#DejaVuSans-6f" transform="translate(1181.933594 0)"/>
     <use xlink:href="#DejaVuSans-6e" transform="translate(1243.115234 0)"/>
     <use xlink:href="#DejaVuSans-65" transform="translate(1306.494141 0)"/>
     <use xlink:href="#DejaVuSans-6e" transform="translate(1368.017578 0)"/>
     <use xlink:href="#DejaVuSans-74" transform="translate(1431.396484 0)"/>
     <use xlink:href="#DejaVuSans-73" transform="translate(1470.605469 0)"/>
    </g>
   </g>
   <g id="text_19">
    <!-- - Arrows = data / control flow -->
    <g transform="translate(397.8 1024.917766) scale(0.11 -0.11)">
     <use xlink:href="#DejaVuSans-2d"/>
     <use xlink:href="#DejaVuSans-20" transform="translate(36.083984 0)"/>
     <use xlink:href="#DejaVuSans-41" transform="translate(67.871094 0)"/>
     <use xlink:href="#DejaVuSans-72" transform="translate(136.279297 0)"/>
     <use xlink:href="#DejaVuSans-72" transform="translate(175.642578 0)"/>
     <use xlink:href="#DejaVuSans-6f" transform="translate(214.505859 0)"/>
     <use xlink:href="#DejaVuSans-77" transform="translate(275.6875 0)"/>
     <use xlink:href="#DejaVuSans-73" transform="translate(357.474609 0)"/>
     <use xlink:href="#DejaVuSans-20" transform="translate(409.574219 0)"/>
     <use xlink:href="#DejaVuSans-3d" transform="translate(441.361328 0)"/>
     <use xlink:href="#DejaVuSans-20" transform="translate(525.150391 0)"/>
     <use xlink:href="#DejaVuSans-64" transform="translate(556.9375 0)"/>
     <use xlink:href="#DejaVuSans-61" transform="translate(620.414062 0)"/>
     <use xlink:href="#DejaVuSans-74" transform="translate(681.693359 0)"/>
     <use xlink:href="#DejaVuSans-61" transform="translate(720.902344 0)"/>
     <use xlink:href="#DejaVuSans-20" transform="translate(782.181641 0)"/>
     <use xlink:href="#DejaVuSans-2f" transform="translate(813.96875 0)"/>
     <use xlink:href="#DejaVuSans-20" transform="translate(847.660156 0)"/>
     <use xlink:href="#DejaVuSans-63" transform="translate(879.447266 0)"/>
     <use xlink:href="#DejaVuSans-6f" transform="translate(934.427734 0)"/>
     <use xlink:href="#DejaVuSans-6e" transform="translate(995.609375 0)"/>
     <use xlink:href="#DejaVuSans-74" transform="translate(1058.988281 0)"/>
     <use xlink:href="#DejaVuSans-72" transform="translate(1098.197266 0)"/>
     <use xlink:href="#DejaVuSans-6f" transform="translate(1137.060547 0)"/>
     <use xlink:href="#DejaVuSans-6c" transform="translate(1198.242188 0)"/>
     <use xlink:href="#DejaVuSans-20" transform="translate(1226.025391 0)"/>
     <use xlink:href="#DejaVuSans-66" transform="translate(1257.8125 0)"/>
     <use xlink:href="#DejaVuSans-6c" transform="translate(1293.017578 0)"/>
     <use xlink:href="#DejaVuSans-6f" transform="translate(1320.800781 0)"/>
     <use xlink:href="#DejaVuSans-77" transform="translate(1381.982422 0)"/>
    </g>
   </g>
   <g id="text_20">
    <!-- - Black-only (print-safe) -->
    <g transform="translate(397.8 1069.269766) scale(0.11 -0.11)">
     <use xlink:href="#DejaVuSans-2d"/>
     <use xlink:href="#DejaVuSans-20" transform="translate(36.083984 0)"/>
     <use xlink:href="#DejaVuSans-42" transform="translate(67.871094 0)"/>
     <use xlink:href="#DejaVuSans-6c" transform="translate(136.474609 0)"/>
     <use xlink:href="#DejaVuSans-61" transform="translate(164.257812 0)"/>
     <use xlink:href="#DejaVuSans-63" transform="translate(225.537109 0)"/>
     <use xlink:href="#DejaVuSans-6b" transform="translate(280.517578 0)"/>
     <use xlink:href="#DejaVuSans-2d" transform="translate(338.427734 0)"/>
     <use xlink:href="#DejaVuSans-6f" transform="translate(376.386719 0)"/>
     <use xlink:href="#DejaVuSans-6e" transform="translate(437.568359 0)"/>
     <use xlink:href="#DejaVuSans-6c" transform="translate(500.947266 0)"/>
     <use xlink:href="#DejaVuSans-79" transform="translate(528.730469 0)"/>
     <use xlink:href="#DejaVuSans-20" transform="translate(587.910156 0)"/>
     <use xlink:href="#DejaVuSans-28" transform="translate(619.697266 0)"/>
     <use xlink:href="#DejaVuSans-70" transform="translate(658.710938 0)"/>
     <use xlink:href="#DejaVuSans-72" transform="translate(722.1875 0)"/>
     <use xlink:href="#DejaVuSans-69" transform="translate(763.300781 0)"/>
     <use xlink:href="#DejaVuSans-6e" transform="translate(791.083984 0)"/>
     <use xlink:href="#DejaVuSans-74" transform="translate(854.462891 0)"/>
     <use xlink:href="#DejaVuSans-2d" transform="translate(893.671875 0)"/>
     <use xlink:href="#DejaVuSans-73" transform="translate(929.755859 0)"/>
     <use xlink:href="#DejaVuSans-61" transform="translate(981.855469 0)"/>
     <use xlink:href="#DejaVuSans-66" transform="translate(1043.134766 0)"/>
     <use xlink:href="#DejaVuSans-65" transform="translate(1078.339844 0)"/>
     <use xlink:href="#DejaVuSans-29" transform="translate(1139.863281 0)"/>
    </g>
   </g>
  </g>
 </g>
 <defs>
  <clipPath id="p887143d408">
   <rect x="7.2" y="786.525766" width="781.2" height="277.2"/>
  </clipPath>
 </defs>
</svg>
